<svg xmlns="http://www.w3.org/2000/svg" xmlns:xlink="http://www.w3.org/1999/xlink" version="1.1" x="0px" y="0px" viewBox="0 0 52 52" style="enable-background:new 0 0 52 52;" xml:space="preserve"><style type="text/css">
	.st0{fill:none;stroke:#000000;stroke-miterlimit:10;}
	.st1{fill:none;}
</style><g><g><path d="M31.9775391,21.8771973c-0.1035156,0-0.2060547-0.0322266-0.2939453-0.0957031L26,17.6525879l-5.6835938,4.1289063    c-0.1757813,0.1269531-0.4121094,0.1269531-0.5878906,0c-0.1748047-0.1269531-0.2480469-0.3525391-0.1816406-0.5585938    l2.1708984-6.6806641l-5.6826172-4.1298828c-0.1748047-0.1269531-0.2480469-0.3525391-0.1816406-0.5585938    c0.0673828-0.2060547,0.2587891-0.3457031,0.4755859-0.3457031h7.0244141l2.1708984-6.6806641    c0.1347656-0.4121094,0.8164063-0.4121094,0.9511719,0l2.1708984,6.6806641h7.0244141    c0.2167969,0,0.4082031,0.1396484,0.4755859,0.3457031c0.0664063,0.2060547-0.0068359,0.4316406-0.1816406,0.5585938    l-5.6826172,4.1298828l2.1708984,6.6806641c0.0664063,0.2060547-0.0068359,0.4316406-0.1816406,0.5585938    C32.1835938,21.8449707,32.0810547,21.8771973,31.9775391,21.8771973z M26,16.5344238    c0.1035156,0,0.2060547,0.0322266,0.2939453,0.0957031l4.7324219,3.4384766L29.21875,14.505127    c-0.0664063-0.2060547,0.0068359-0.4316406,0.1816406-0.5585938l4.7314453-3.4384766h-5.8486328    c-0.2167969,0-0.4082031-0.1396484-0.4755859-0.3457031L26,4.5998535l-1.8076172,5.5625    c-0.0673828,0.2060547-0.2587891,0.3457031-0.4755859,0.3457031h-5.8486328l4.7314453,3.4384766    c0.1748047,0.1269531,0.2480469,0.3525391,0.1816406,0.5585938l-1.8076172,5.5634766l4.7324219-3.4384766    C25.7939453,16.5666504,25.8964844,16.5344238,26,16.5344238z"></path></g><g><path d="M30.0585938,43.4152832h-8.1171875c-0.1611328,0-0.3115234-0.0771484-0.40625-0.2080078    c-0.09375-0.1308594-0.1191406-0.2978516-0.0673828-0.4511719c2.4101563-7.1953125,2.5351563-15.5361328,0.3427734-22.8837891    c-0.0605469-0.203125,0.0136719-0.4228516,0.1855469-0.546875l3.7099609-2.6953125    c0.1757813-0.1269531,0.4121094-0.1269531,0.5878906,0l3.7099609,2.6953125    c0.171875,0.1240234,0.2460938,0.34375,0.1855469,0.546875c-2.1933594,7.3486328-2.0683594,15.6894531,0.3427734,22.8837891    c0.0517578,0.1523438,0.0263672,0.3203125-0.0673828,0.4511719    C30.3701172,43.3381348,30.2197266,43.4152832,30.0585938,43.4152832z M22.6289063,42.4152832h6.7421875    c-2.2324219-7.1201172-2.3212891-15.2539063-0.2402344-22.4882813L26,17.6525879l-3.1308594,2.2744141    C24.9501953,27.1594238,24.8603516,35.2941895,22.6289063,42.4152832z"></path></g><g><path d="M35.2324219,49.4816895H16.7675781c-0.2763672,0-0.5-0.2236328-0.5-0.5v-2.0664063c0-2.4814453,2.0185547-4.5,4.5-4.5    h10.4648438c2.4814453,0,4.5,2.0185547,4.5,4.5v2.0664063C35.7324219,49.2580566,35.5087891,49.4816895,35.2324219,49.4816895z     M17.2675781,48.4816895h17.4648438v-1.5664063c0-1.9296875-1.5703125-3.5-3.5-3.5H20.7675781c-1.9296875,0-3.5,1.5703125-3.5,3.5    V48.4816895z"></path></g></g></svg>