<svg xmlns:dc="http://purl.org/dc/elements/1.1/" xmlns:cc="http://creativecommons.org/ns#" xmlns:rdf="http://www.w3.org/1999/02/22-rdf-syntax-ns#" xmlns:svg="http://www.w3.org/2000/svg" xmlns="http://www.w3.org/2000/svg" xmlns:sodipodi="http://sodipodi.sourceforge.net/DTD/sodipodi-0.dtd" xmlns:inkscape="http://www.inkscape.org/namespaces/inkscape" version="1.1" x="0px" y="0px" viewBox="0 0 100 100" xml:space="preserve"><path d="m 26.484134,0.3685653 c -2.684761,0 -4.868422,2.1840495 -4.868422,4.8684163 l 0,2.1697185 -6.936279,0 c -2.113026,0 -4.110811,0.9234825 -5.4803329,2.5339859 -1.355564,1.593835 -1.9414622,3.687096 -1.60703,5.743126 1.82241,11.205889 8.8746349,21.105855 18.8833549,26.536054 0.914501,2.198719 1.950137,4.281466 3.103489,6.221752 3.683985,6.199109 8.263849,10.483278 13.304948,12.555204 0.510856,5.16556 -2.926127,10.058823 -8.10255,11.224972 -0.01105,0.0025 -0.01906,0.0068 -0.02991,0.0091 -1.010274,0.241375 -1.76228,1.148061 -1.76228,2.232192 l 0,10.539608 -4.262568,0 c -3.800307,0 -6.891973,3.091663 -6.891973,6.891967 l 0,5.439447 c 0,1.268891 1.028424,2.297327 2.297325,2.297327 l 51.955826,0 c 1.268897,0 2.297321,-1.028426 2.297321,-2.297327 l 0,-5.439447 c 0,-3.800304 -3.091662,-6.891967 -6.891978,-6.891967 l -4.262945,0 0,-10.539608 c 0,-1.086264 -0.754588,-1.99409 -1.767574,-2.233322 -0.0096,-0.0025 -0.01887,-0.0059 -0.02839,-0.0076 -5.215586,-1.173901 -8.659159,-6.116439 -8.0946,-11.320775 4.953076,-2.105467 9.452975,-6.351429 13.082671,-12.459018 1.153356,-1.940482 2.188801,-4.023407 3.103494,-6.222509 10.008137,-5.430395 17.059804,-15.330182 18.882221,-26.53568 0.33442,-2.05603 -0.251651,-4.149291 -1.60741,-5.743126 C 89.430828,8.3303441 87.433608,7.4070571 85.320586,7.4070571 l -6.935524,0 0,-2.169336 c 0,-2.6845708 -2.184423,-4.8687988 -4.868799,-4.8687988 l -47.032117,0 z m -3.8e-4,4.5946483 47.032125,0 c 0.151215,0 0.274142,0.12274 0.274142,0.273768 l 0,10.9909664 c 0,11.31814 -2.598892,21.924923 -7.317965,29.865979 -4.496312,7.566887 -10.346065,11.734274 -16.470916,11.734274 -6.12582,0 -11.975915,-4.1672 -16.47281,-11.733892 -4.719269,-7.941251 -7.317967,-18.548034 -7.317967,-29.865987 l 0,-10.9913404 c 0,-0.151215 0.122556,-0.273768 0.273391,-0.273768 z m -11.804699,7.0377624 6.936279,0 0,4.226972 c 0,6.627756 0.846028,13.047499 2.449167,18.918567 -6.300114,-4.978475 -10.63789,-12.210605 -11.93723,-20.200333 -0.119427,-0.734196 0.0836,-1.454595 0.571774,-2.028855 0.495348,-0.582395 1.216729,-0.916351 1.98001,-0.916351 z m 63.705996,3.74e-4 6.935524,0 c 0.763469,0 1.484856,0.333778 1.980006,0.915977 0.488172,0.574064 0.69139,1.294659 0.572161,2.028855 -1.299344,7.989141 -5.636562,15.221093 -11.936481,20.19995 1.602947,-5.871068 2.44879,-12.290624 2.44879,-18.918184 l 0,-4.226598 z m -28.385047,1.820215 c -0.874564,0 -1.673313,0.496603 -2.060284,1.280626 l -3.100084,6.281959 -6.932491,1.007233 c -0.865451,0.12563 -1.584414,0.731765 -1.854673,1.56348 -0.270067,0.831912 -0.04459,1.744753 0.581619,2.355265 l 5.016478,4.889625 -1.184445,6.904473 c -0.147925,0.861959 0.206067,1.732809 0.913703,2.246957 0.707251,0.513961 1.645691,0.581689 2.419634,0.174947 l 6.200543,-3.259503 6.200543,3.259503 c 0.336177,0.176613 0.703125,0.263543 1.068577,0.263543 0.476153,0 0.950524,-0.147679 1.350678,-0.43849 0.707639,-0.514148 1.06163,-1.384998 0.913704,-2.246957 l -1.184446,-6.904473 5.016477,-4.889625 c 0.626603,-0.610317 0.852065,-1.523353 0.582003,-2.355265 -0.270453,-0.831324 -0.989417,-1.437468 -1.854674,-1.56348 L 55.160372,21.38415 52.060288,15.102191 c -0.387166,-0.784023 -1.185914,-1.280626 -2.060284,-1.280626 z m 0,7.488363 1.574464,3.190584 c 0.33482,0.677977 0.981742,1.14801 1.730094,1.256768 l 3.520774,0.511946 -2.54762,2.48325 c -0.541488,0.527722 -0.788716,1.288336 -0.66076,2.033778 l 0.601311,3.507141 -3.149308,-1.655875 c -0.334431,-0.176035 -0.702137,-0.263925 -1.069333,-0.263925 -0.367196,0 -0.734331,0.08827 -1.068955,0.263925 l -3.14931,1.655875 0.601313,-3.507141 c 0.127956,-0.745246 -0.119273,-1.50586 -0.660762,-2.033778 l -2.547618,-2.48325 3.521152,-0.511946 c 0.748158,-0.108562 1.395089,-0.578791 1.729713,-1.256768 l 1.574845,-3.190584 z m 2.686967,40.912237 c 0.05234,3.729927 1.504187,7.260572 3.945248,9.943588 l -13.022846,0 c 0.567855,-0.625047 1.087039,-1.302438 1.551367,-2.027726 1.531019,-2.392197 2.334725,-5.109885 2.370785,-7.885568 0.816013,0.111087 1.639439,0.170391 2.469993,0.170391 0.903645,0 1.798869,-0.06927 2.685453,-0.200685 z m -15.102444,14.538236 25.050953,0 0,8.242279 -25.050953,0 0,-8.242279 z m -8.857975,12.836929 42.766522,0 c 1.266772,0 2.297329,1.030931 2.297329,2.297697 l 0,3.142121 -47.361174,0 0,-3.142121 c 0,-1.266766 1.030553,-2.297697 2.297323,-2.297697 z"></path></svg>