<svg xmlns="http://www.w3.org/2000/svg" data-name="Layer 1" viewBox="0 0 100 100" x="0px" y="0px"><title>41 all</title><path d="M78.69,70,67.54,59.39a9.85,9.85,0,0,0-2.43-18.58L53.94,29.4a9.86,9.86,0,1,0-7.89,0L34.9,40.81a9.85,9.85,0,0,0-2.44,18.58L21.31,70a9.88,9.88,0,1,0,5.43.36l9.53-9.06L46,70.6a9.86,9.86,0,1,0,7.91,0l9.78-9.31,9.53,9.06A9.85,9.85,0,1,0,78.69,70ZM29.28,79.63a5.86,5.86,0,1,1-5.86-5.86A5.87,5.87,0,0,1,29.28,79.63ZM44.14,20.37A5.86,5.86,0,1,1,50,26.23,5.87,5.87,0,0,1,44.14,20.37ZM55.86,79.63A5.86,5.86,0,1,1,50,73.77,5.87,5.87,0,0,1,55.86,79.63Zm3.79-20L50,68.84l-9.65-9.18a9.85,9.85,0,0,0-.28-18.42L50,31.09l9.93,10.15a9.85,9.85,0,0,0-.28,18.42ZM76.59,85.49a5.86,5.86,0,1,1,5.86-5.86A5.87,5.87,0,0,1,76.59,85.49Z"></path></svg>