<svg xmlns="http://www.w3.org/2000/svg" xmlns:xlink="http://www.w3.org/1999/xlink" xml:space="preserve" version="1.1" style="shape-rendering:geometricPrecision;text-rendering:geometricPrecision;image-rendering:optimizeQuality;" viewBox="0 0 2.528 2.445" x="0px" y="0px" fill-rule="evenodd" clip-rule="evenodd"><defs><style type="text/css">
   
    .fil0 {fill:black;fill-rule:nonzero}
   
  </style></defs><g><path class="fil0" d="M0.911 1.757c-0.148,-0.023 -0.303,-0.101 -0.432,-0.205 -0.139,-0.112 -0.249,-0.255 -0.285,-0.391l-0.193 -0.719c-0.004,-0.015 0.002,-0.03 0.012,-0.039 0.08,-0.076 0.179,-0.146 0.291,-0.205 0.109,-0.058 0.23,-0.107 0.356,-0.141 0.127,-0.034 0.256,-0.052 0.379,-0.056 0.127,-0.004 0.248,0.007 0.356,0.033 0.014,0.003 0.024,0.014 0.028,0.027l0.168 0.628c0.092,0.008 0.185,0.025 0.277,0.05 0.127,0.033 0.248,0.082 0.356,0.14 0.113,0.06 0.212,0.131 0.293,0.207 0.01,0.01 0.014,0.024 0.01,0.037l-0.192 0.719c-0.043,0.16 -0.187,0.33 -0.362,0.448 -0.156,0.105 -0.37,0.191 -0.56,0.139 -0.172,-0.047 -0.319,-0.21 -0.411,-0.4 -0.043,-0.087 -0.074,-0.181 -0.091,-0.272zm0.379 -0.051l0.595 0.159c0.012,0.004 0.017,0.015 0.013,0.026 -0.024,0.067 -0.08,0.113 -0.145,0.14 -0.08,0.034 -0.174,0.039 -0.237,0.022 -0.063,-0.017 -0.142,-0.069 -0.194,-0.137 -0.043,-0.057 -0.068,-0.125 -0.055,-0.195 0.002,-0.012 0.012,-0.017 0.023,-0.015zm0.773 -0.485c0.054,0.015 0.086,0.07 0.072,0.125 -0.015,0.054 -0.071,0.086 -0.125,0.072 -0.055,-0.015 -0.087,-0.071 -0.072,-0.125 0.014,-0.054 0.07,-0.087 0.125,-0.072zm-0.604 -0.162c0.054,0.015 0.087,0.071 0.072,0.125 -0.015,0.054 -0.07,0.087 -0.125,0.072 -0.054,-0.014 -0.086,-0.07 -0.072,-0.125 0.015,-0.054 0.071,-0.086 0.125,-0.072zm0.052 -0.376l-0.155 -0.581c-0.096,-0.02 -0.203,-0.029 -0.315,-0.026 -0.117,0.004 -0.24,0.022 -0.361,0.054 -0.122,0.033 -0.237,0.079 -0.34,0.134 -0.099,0.053 -0.187,0.114 -0.26,0.18l0.187 0.697c0.032,0.12 0.132,0.249 0.26,0.352 0.112,0.091 0.245,0.16 0.372,0.185 -0.007,-0.077 -0.004,-0.151 0.013,-0.214l0.053 -0.196c-0.07,0.021 -0.108,0.045 -0.228,0.106 -0.011,0.006 -0.031,-0.005 -0.03,-0.025 0.015,-0.172 0.136,-0.24 0.228,-0.265 0.025,-0.007 0.053,-0.012 0.082,-0.013l0.089 -0.329c0.004,-0.015 0.016,-0.025 0.03,-0.028 0.107,-0.025 0.228,-0.036 0.354,-0.032 0.007,0 0.014,0.001 0.021,0.001zm-0.024 0.075c-0.112,-0.004 -0.219,0.005 -0.314,0.026l-0.187 0.697c-0.038,0.142 -0.001,0.341 0.084,0.515 0.084,0.173 0.215,0.321 0.365,0.361 0.17,0.043 0.356,-0.036 0.496,-0.13 0.161,-0.109 0.292,-0.263 0.33,-0.404l0.187 -0.698c-0.072,-0.065 -0.16,-0.127 -0.259,-0.179 -0.104,-0.056 -0.219,-0.102 -0.34,-0.134 -0.122,-0.033 -0.244,-0.051 -0.362,-0.054zm-0.417 -0.38c0.054,-0.015 0.11,0.018 0.124,0.072 0.015,0.054 -0.017,0.11 -0.072,0.125 -0.054,0.014 -0.11,-0.018 -0.124,-0.072 -0.015,-0.055 0.017,-0.11 0.072,-0.125zm-0.604 0.162c0.054,-0.015 0.11,0.017 0.125,0.072 0.014,0.054 -0.018,0.11 -0.072,0.125 -0.055,0.014 -0.11,-0.018 -0.125,-0.072 -0.015,-0.055 0.018,-0.111 0.072,-0.125z"></path></g></svg>