<svg xmlns:dc="http://purl.org/dc/elements/1.1/" xmlns:cc="http://creativecommons.org/ns#" xmlns:rdf="http://www.w3.org/1999/02/22-rdf-syntax-ns#" xmlns:svg="http://www.w3.org/2000/svg" xmlns="http://www.w3.org/2000/svg" xmlns:sodipodi="http://sodipodi.sourceforge.net/DTD/sodipodi-0.dtd" xmlns:inkscape="http://www.inkscape.org/namespaces/inkscape" version="1.1" x="0px" y="0px" viewBox="0 0 100 100"><g transform="translate(0,-952.36218)"><path style="font-size:medium;font-style:normal;font-variant:normal;font-weight:normal;font-stretch:normal;text-indent:0;text-align:start;text-decoration:none;line-height:normal;letter-spacing:normal;word-spacing:normal;text-transform:none;direction:ltr;block-progression:tb;writing-mode:lr-tb;text-anchor:start;baseline-shift:baseline;opacity:1;color:#000000;fill:#000000;fill-opacity:1;stroke:none;stroke-width:2;marker:none;visibility:visible;display:inline;overflow:visible;enable-background:accumulate;font-family:Sans;-inkscape-font-specification:Sans" d="M 82.96875 11 A 1.0001 1.0001 0 0 0 82.90625 11.03125 A 1.0001 1.0001 0 0 0 82.78125 11.0625 L 82.75 11.0625 L 9.75 30.65625 A 1.0001 1.0001 0 0 0 9.03125 31.875 L 12.875 46.25 A 1.0001 1.0001 0 0 0 13 46.53125 L 13 88 A 1.0001 1.0001 0 0 0 14 89 L 90 89 A 1.0001 1.0001 0 0 0 91 88 L 91 46 A 1.0001 1.0001 0 0 0 90 45 L 21.28125 45 L 71.96875 31.375 A 1.0001 1.0001 0 0 0 72.0625 31.34375 L 87.25 27.28125 A 1.0001 1.0001 0 0 0 87.96875 26.0625 L 84.125 11.71875 A 1.0001 1.0001 0 0 0 82.96875 11 z M 80.4375 13.75 L 71.125 29.53125 L 54.5 34 L 63.65625 18.25 L 80.4375 13.75 z M 82.625 13.96875 L 85.78125 25.59375 L 73.875 28.8125 L 82.625 13.96875 z M 60.90625 19 L 51.75 34.75 L 35.1875 39.1875 L 44.28125 23.46875 L 60.90625 19 z M 41.5625 24.1875 L 32.46875 39.9375 L 15.6875 44.4375 L 24.75 28.71875 L 41.5625 24.1875 z M 22 29.4375 L 14.125 43.15625 L 11.21875 32.34375 L 22 29.4375 z M 15 47 L 89 47 L 89 87 L 15 87 L 15 47 z M 49.8125 68 A 1.0043849 1.0043849 0 0 0 50 70 L 80 70 A 1.0001 1.0001 0 1 0 80 68 L 50 68 A 1.0001 1.0001 0 0 0 49.8125 68 z M 61.8125 78 A 1.0043849 1.0043849 0 0 0 62 80 L 80 80 A 1.0001 1.0001 0 1 0 80 78 L 62 78 A 1.0001 1.0001 0 0 0 61.8125 78 z " transform="translate(0,952.36218)"></path></g></svg>